<svg width="96" height="99" viewBox="0 0 96 99" fill="none" xmlns="http://www.w3.org/2000/svg">
<g filter="url(#filter0_dd)">
<path d="M7.25787 45.7957C4.27746 17.439 9.71633 10.7225 38.073 7.74213L48.7661 6.61824C77.1228 3.63784 83.8392 9.07671 86.8196 37.4334L87.9435 48.1265C90.9239 76.4831 85.485 83.1996 57.1284 86.18L46.4353 87.3039C18.0786 90.2843 11.3622 84.8454 8.38176 56.4888L7.25787 45.7957Z" fill="white"/>
</g>
<path d="M65.2 40.1002C66.2 40.0002 67 39.1002 67 38.1002V32.1002C67 31.5002 66.8 31.0002 66.3 30.6002C65.9 30.2002 65.3 30.0002 64.7 30.1002L63.1 30.3002C63.1 29.0002 63 27.7002 63 26.5002C63 25.8002 62.7 25.2002 62.2 24.8002C61.7 24.4002 61.1 24.2002 60.4 24.2002C57.8 24.4002 52 25.0002 46.4 25.6002C40.8 26.1002 35 26.7002 32.4 26.9002C31.7 26.9002 31.2 27.2002 30.7 27.7002C30.3 28.2002 30.1 28.8002 30.1 29.5002V30.0002C30.4 33.5002 30.9 40.1002 30.9 46.0002C30.9 49.3002 30.3 53.8002 29.8 57.8002C29.4 61.2002 29 64.1002 29 66.0002C29 67.7002 29.7 69.3002 31 70.4002C32.1 71.4002 33.6 72.0002 35 72.0002C35.2 72.0002 35.4 72.0002 35.6 72.0002C38.6 71.7002 41 69.0002 41 65.8002V63.9002L64.8 60.7002L64.5 63.3002C64.2 65.6002 62.4 67.3002 60.2 67.6002L41.9 70.0002L42.2 72.0002L60.6 69.6002C63.8 69.2002 66.2 66.7002 66.6 63.5002L66.9 60.9002C67 60.3002 66.8 59.7002 66.3 59.3002C65.9 58.9002 65.3 58.7002 64.6 58.8002L40.8 62.0002C39.8 62.1002 39 63.0002 39 64.0002V65.9002C39 68.1002 37.4 69.9002 35.4 70.1002C34.3 70.2002 33.2 69.8002 32.3 69.1002C31.5 68.3002 31 67.3002 31 66.1002C31 64.4002 31.4 61.4002 31.8 58.2002C32.4 54.0002 33 49.4002 33 46.0002C33 40.0002 32.5 33.4002 32.2 29.8002V29.3002C32.2 29.2002 32.2 29.1002 32.3 29.0002C32.4 28.9002 32.4 28.9002 32.6 28.9002C35.2 28.7002 41.1 28.1002 46.8 27.5002C52.3 26.9002 58 26.3002 60.6 26.1002C60.8 26.1002 60.9 26.2002 60.9 26.2002C61 26.3002 61.1 26.4002 61.1 26.5002C61.2 27.8002 61.2 29.1002 61.2 30.4002L38.8 32.8002C37.8 32.9002 37 33.8002 37 34.8002V40.8002C37 41.4002 37.2 41.9002 37.7 42.3002C38.1 42.6002 38.5 42.8002 39 42.8002C39.1 42.8002 39.1 42.8002 39.2 42.8002L61 40.5002C60.9 41.5002 60.9 42.5002 60.8 43.5002L38.8 45.9002C37.8 46.0002 37 46.9002 37 47.9002V53.9002C37 54.5002 37.2 55.0002 37.7 55.4002C38.1 55.7002 38.5 55.9002 39 55.9002C39.1 55.9002 39.1 55.9002 39.2 55.9002L60.1 53.7002C60 54.8002 60 56.0002 60 57.0002H62C62 55.9002 62 54.7002 62.1 53.4002L65.2 53.1002C66.2 53.0002 67 52.1002 67 51.1002V45.1002C67 44.5002 66.8 44.0002 66.3 43.6002C65.9 43.2002 65.3 43.0002 64.7 43.1002L62.7 43.3002C62.8 42.3002 62.8 41.3002 62.9 40.3002L65.2 40.1002ZM65 45.1002V51.1002L39 53.9002V47.9002L65 45.1002ZM39 40.9002V34.9002L65 32.1002V38.1002L39 40.9002Z" fill="#0A0A2D"/>
<defs>
<filter id="filter0_dd" x="0.533203" y="3.89355" width="94.1348" height="94.1357" filterUnits="userSpaceOnUse" color-interpolation-filters="sRGB">
<feFlood flood-opacity="0" result="BackgroundImageFix"/>
<feColorMatrix in="SourceAlpha" type="matrix" values="0 0 0 0 0 0 0 0 0 0 0 0 0 0 0 0 0 0 127 0" result="hardAlpha"/>
<feOffset dy="4"/>
<feGaussianBlur stdDeviation="3"/>
<feColorMatrix type="matrix" values="0 0 0 0 0 0 0 0 0 0 0 0 0 0 0 0 0 0 0.04 0"/>
<feBlend mode="normal" in2="BackgroundImageFix" result="effect1_dropShadow"/>
<feColorMatrix in="SourceAlpha" type="matrix" values="0 0 0 0 0 0 0 0 0 0 0 0 0 0 0 0 0 0 127 0" result="hardAlpha"/>
<feMorphology radius="2" operator="erode" in="SourceAlpha" result="effect2_dropShadow"/>
<feOffset dy="3"/>
<feGaussianBlur stdDeviation="1"/>
<feColorMatrix type="matrix" values="0 0 0 0 0 0 0 0 0 0 0 0 0 0 0 0 0 0 0.12 0"/>
<feBlend mode="normal" in2="effect1_dropShadow" result="effect2_dropShadow"/>
<feBlend mode="normal" in="SourceGraphic" in2="effect2_dropShadow" result="shape"/>
</filter>
</defs>
</svg>
