<svg xmlns="http://www.w3.org/2000/svg" width="405" height="504" fill="none" viewBox="0 0 405 504"><path stroke="#15E0AF" stroke-width="2" d="M260.703 197.454c-3.74-12.729-8.429-25.746-14.142-39.015C192.084 31.917 26.499-34.095 9.658 37.417-8.82 115.882 130.515 196.67 260.703 197.454Zm0 0c29.565 100.636-.16 183.329-51.626 230.534-53.978 49.509-119.952 52.01-199.42 16.003m251.046-246.537c49.913.302 98.482-11.157 136.297-39.015"/><path stroke="#15E0AF" stroke-linecap="round" stroke-linejoin="round" stroke-width="2" d="M38.646 496c-3.678-29.4-14.927-39.466-25.743-48.192 0 0-4.416-4.042-3.149-3.982 25.608 2.554 38.046.645 58.049-10.815"/></svg>