<svg width="56" height="56" viewBox="0 0 56 56" fill="none" xmlns="http://www.w3.org/2000/svg">
<path d="M47.6 18.6C46.8 18.1 45.8 18 45 18.3V17C45 14.8 43.2 13 41 13H38.4L30.8 5.4C29.2 3.8 26.7 3.8 25.1 5.4L17.6 13H15C12.8 13 11 14.8 11 17V17.4C10.8 17.4 10.6 17.3 10.5 17.3C9.6 17.2 8.8 17.4 8.1 18C7.4 18.5 7 19.3 7 20.2V45C7 47.8 9.2 50 12 50H44C46.8 50 49 47.8 49 45V21.1C49 20 48.5 19.1 47.6 18.6ZM26.6 6.8C27.4 6 28.6 6 29.4 6.8L35.6 13H20.4L26.6 6.8ZM13 17C13 15.9 13.9 15 15 15H15.6H40.4H41C42.1 15 43 15.9 43 17V19.1C41.1 19.9 39.3 20.6 37.8 21.3C34.2 22.8 31.4 23.9 29.1 25.2C25.4 21.4 18.3 19 13 17.8V17ZM29 32.9C28.5 33.9 27.2 35.1 25.8 35.5C25.2 35.7 24.6 35.6 24.2 35.3C24 35.2 23.9 34.9 23.9 34.7C23.7 33.8 24.1 32.3 25.3 30.7C26.2 29.5 27.3 28.5 28.7 27.6C28.9 27.8 29 28.1 29.1 28.3C29.8 29.9 29.7 31.4 29 32.9ZM47 45C47 46.7 45.7 48 44 48H12C10.3 48 9 46.7 9 45V20.2C9 19.9 9.1 19.6 9.4 19.4C9.5 19.3 9.7 19.2 10 19.2C10.1 19.2 10.1 19.2 10.2 19.2C15.4 20.1 23.5 22.5 27.3 26.2C25.9 27.2 24.7 28.2 23.6 29.6C22.2 31.4 21.5 33.5 21.8 35.1C21.9 36 22.4 36.7 23 37.1C23.9 37.7 25 37.8 26.2 37.5C28.2 37 29.9 35.2 30.6 33.8C31.7 31.6 31.7 29.5 30.7 27.5C30.6 27.2 30.4 27 30.2 26.7C32.3 25.6 35 24.5 38.4 23.1C40.5 22.3 42.8 21.3 45.5 20.1C45.8 20 46.2 20 46.5 20.2C46.8 20.4 47 20.7 47 21V45Z" fill="#15E0AF"/>
</svg>
