<svg xmlns="http://www.w3.org/2000/svg" width="849" height="451" fill="none" viewBox="0 0 849 451"><path stroke="#0A0A2D" stroke-miterlimit="10" stroke-opacity=".09" stroke-width="2" d="M839.726 172.488s-98.346 105.331-239.135 95.916c-140.788-9.416-186.218-109.355-182.218-169.173 3.311-49.51 27.556-66.923 55.389-67.258 32.773-.423 87.427 45.747 82.009 126.754-9.003 134.629-67.468 223.489-141.475 218.539-74.007-4.949-116.815-89.233-186.803-93.914-69.988-4.681-80.107 55.774-80.936 68.165-.828 12.39 1.577 42.881 33.567 45.021 36.415 2.435 75.078-43.979 78.218-90.938 3.141-46.959-12.087-103.408-76.026-107.685C117.118 193.555 28.36 276.257 1 395.122" vector-effect="non-scaling-stroke"/></svg>