<svg width="137" height="48" viewBox="0 0 137 48" fill="none" xmlns="http://www.w3.org/2000/svg">
<path fill-rule="evenodd" clip-rule="evenodd" d="M21.2529 28.5359H36.3804C37.0654 28.5359 37.6202 27.988 37.6202 27.3174V20.6823C37.6202 20.0123 37.0654 19.4637 36.3804 19.4637H21.2529C20.5679 19.4637 20.013 20.0123 20.013 20.6823V27.3174C20.0137 27.988 20.5679 28.5359 21.2529 28.5359ZM22.2146 21.2241H35.4878C35.7153 21.2241 35.9009 21.4072 35.9009 21.6302V26.3701C35.9009 26.5932 35.7153 26.7763 35.4878 26.7763H22.2146C21.9872 26.7763 21.8015 26.5932 21.8015 26.3701V21.6302C21.8015 21.4065 21.9872 21.2241 22.2146 21.2241Z" fill="#42425A"/>
<path fill-rule="evenodd" clip-rule="evenodd" d="M0 28.537H1.78785V26.3711H16.2996C17.0181 26.3711 17.6066 25.792 17.6066 25.0848V20.7511C17.6066 20.0439 17.0181 19.4648 16.2996 19.4648H1.78785H1.3063H0V20.7511V25.0848V28.537ZM1.78785 24.6101V21.2251H2.26872H13.9603H15.2673C15.5694 21.2251 15.8173 21.4685 15.8173 21.7669V24.069C15.8173 24.3667 15.5701 24.6108 15.2673 24.6108H13.9603H2.26941H1.78785V24.6101Z" fill="#42425A"/>
<path fill-rule="evenodd" clip-rule="evenodd" d="M39.9581 28.5359H41.7466V26.3701H54.6369L55.7665 28.5359H57.6996L56.5522 26.3369C57.1303 26.2046 57.5639 25.6913 57.5639 25.0831V20.7494C57.5639 20.0422 56.9762 19.4631 56.2576 19.4631H41.7466H41.265H39.9581V20.7494V25.0831V28.5359ZM41.7466 24.6091V21.2241H42.2275H53.919H55.2253C55.5281 21.2241 55.7761 21.4675 55.7761 21.7659V24.068C55.7761 24.3657 55.5288 24.6098 55.2253 24.6098H53.919H42.2275H41.7466V24.6091Z" fill="#42425A"/>
<path fill-rule="evenodd" clip-rule="evenodd" d="M99.7928 28.5359H101.581V24.8797H114.717V28.5359H116.505V19.4631H114.717V23.12H101.581V19.4631H99.7928V28.5359Z" fill="#42425A"/>
<path fill-rule="evenodd" clip-rule="evenodd" d="M81.7753 28.5359H97.1111V26.7525C97.0679 26.7675 97.0214 26.7756 96.9734 26.7756H82.737C82.511 26.7756 82.324 26.5925 82.324 26.3694V21.6296C82.324 21.4065 82.5103 21.2234 82.737 21.2234H96.9734C97.0214 21.2234 97.0679 21.2322 97.1111 21.2471V19.4631H81.7753C81.091 19.4631 80.5361 20.0116 80.5361 20.6816V27.3167C80.5361 27.988 81.091 28.5359 81.7753 28.5359Z" fill="#42425A"/>
<path fill-rule="evenodd" clip-rule="evenodd" d="M119.256 28.5359H120.289H121.045H137V26.7756H121.045V24.8797H137V23.12H121.045V21.2241H137V19.4631H121.045H120.289H119.256V28.5359Z" fill="#42425A"/>
<path fill-rule="evenodd" clip-rule="evenodd" d="M62.5172 22.0364V21.6296C62.5172 21.4065 62.7029 21.2234 62.9296 21.2234H77.1667C77.2146 21.2234 77.2612 21.2322 77.3037 21.2471V19.4631H61.9679C61.2829 19.4631 60.728 20.0116 60.728 20.6816V21.2234V22.0357V23.6605C60.728 24.3304 61.2829 24.879 61.9679 24.879H63.2735V24.902C63.3166 24.8878 63.3625 24.879 63.4105 24.879H75.1021C75.3295 24.879 75.5151 25.0621 75.5151 25.2858V25.9626V26.3694C75.5151 26.5925 75.3295 26.7756 75.1021 26.7756H60.8657C60.8178 26.7756 60.7712 26.7675 60.728 26.7525V28.5359H76.0638C76.7488 28.5359 77.3037 27.9873 77.3037 27.3174V26.7756V25.9632V24.3385C77.3037 23.6679 76.7488 23.1193 76.0638 23.1193H74.7596V23.0963C74.7157 23.1112 74.6698 23.1193 74.6212 23.1193H62.9289C62.7022 23.1193 62.5166 22.9363 62.5166 22.7125V22.0364H62.5172Z" fill="#42425A"/>
</svg>
