<svg width="56" height="56" viewBox="0 0 56 56" fill="none" xmlns="http://www.w3.org/2000/svg">
<path d="M47.5001 43.8L47.3001 41.6C46.6001 38 44.2001 35.7 41.8001 33.4C40.2001 31.9 38.7001 30.5 37.9001 28.8C37.4001 27.9 37.0001 25 36.6001 22.3C36.2001 19.9 35.9001 17.3 35.4001 15.3C33.4001 7.2 30.9001 3 28.0001 3C25.1001 3 22.7001 7.2 20.6001 15.4C20.1001 17.4 19.7001 20 19.4001 22.4C19.0001 25.1 18.6001 27.9 18.1001 28.9C17.3001 30.6 15.8001 32 14.2001 33.5C11.8001 35.7 9.40008 38.1 8.70008 41.7L8.50008 43.8C8.40008 45.1 9.20009 46.3 10.6001 46.5L21.0001 47.8C21.2001 47.8 21.4001 48 21.4001 48.1L21.9001 50.9C22.1001 52 23.2001 52.9 24.3001 52.9H31.8001C32.2001 52.9 32.6001 52.7 33.0001 52.3C33.9001 51.4 34.6001 49.3 34.7001 46.5C39.7001 46.5 45.3001 46.5 45.3001 46.5H45.5001C46.8001 46.3 47.6001 45.1 47.5001 43.8ZM45.2001 44.6C44.4001 44.6 39.2001 44.6 34.6001 44.6C34.4001 41.9 33.4001 39.5 32.6001 37.6C32.1001 36.4 31.7001 35.4 31.7001 34.8C31.6001 32.9 31.7001 20.4 31.7001 20.2C31.7001 18.1 30.7001 15 28.0001 15C25.3001 15 24.3001 18.1 24.3001 20.2V34.2C24.3001 35.5 24.0001 36.8 23.6001 38C23.3001 39.2 23.0001 40.3 23.0001 41.5C23.0001 44 24.7001 46.6 27.6001 46.6C28.6001 46.6 30.5001 46.6 32.7001 46.6C32.6001 49.1 31.9001 50.6 31.5001 51H24.2001C24.0001 51 23.8001 50.8 23.7001 50.6L23.2001 47.8C23.0001 46.8 22.2001 46 21.1001 45.9L10.8001 44.6C10.5001 44.5 10.4001 44.3 10.4001 44.1L10.6001 42.1C11.2001 39.1 13.3001 37.1 15.5001 35C17.1001 33.5 18.8001 31.9 19.8001 29.9C20.4001 28.7 20.8001 26 21.3001 22.8C21.7001 20.4 22.0001 17.9 22.5001 16C24.4001 8.4 26.6001 5 28.0001 5C29.4001 5 31.6001 8.4 33.4001 15.9C33.9001 17.8 34.2001 20.3 34.6001 22.7C35.1001 25.8 35.5001 28.5 36.1001 29.8C37.1001 31.8 38.8001 33.4 40.4001 34.9C42.6001 37 44.8001 39 45.3001 41.9L45.5001 44C45.5001 44.3 45.4001 44.5 45.2001 44.6ZM29.7001 34.9C29.8001 35.8 30.2001 36.9 30.8001 38.3C31.5001 40.1 32.4001 42.3 32.6001 44.6C30.4001 44.6 28.5001 44.6 27.6001 44.6C26.1001 44.6 25.0001 43 25.0001 41.5C25.0001 40.6 25.3001 39.6 25.5001 38.5C25.8001 37.2 26.2001 35.8 26.2001 34.2V20.2C26.2001 19.2 26.6001 17 27.9001 17C29.2001 17 29.6001 19.2 29.6001 20.2C29.7001 20.7 29.6001 32.9 29.7001 34.9Z" fill="#15E0AF"/>
</svg>
