<svg width="56" height="56" viewBox="0 0 56 56" fill="none" xmlns="http://www.w3.org/2000/svg">
<path d="M54.3998 29.6C54.2998 29.4 48.6998 16.7 35.7998 13C38.8998 11.3 42.4998 9.7 46.6998 8.4L44.7998 13.6L46.6998 14.3L49.1998 7.5C49.4998 6.6 49.0998 5.7 48.1998 5.4L41.3998 2.8L40.6998 4.7L45.8998 6.7C40.9998 8.2 36.6998 10.2 32.9998 12.4C31.4998 12.1 29.9998 12 28.4998 12C11.7998 12 3.1998 20.9 2.7998 21.3L4.2998 22.7C4.3998 22.6 12.6998 14 28.4998 14C29.0998 14 29.6998 14 30.2998 14.1C27.0998 16.4 24.4998 18.8 22.5998 21.2C17.3998 21.7 10.4998 23.4 2.8998 29.2L2.2998 29.7L2.5998 30.4C2.6998 30.6 10.2998 48 28.4998 48C46.6998 48 54.2998 30.6 54.3998 30.4L54.5998 30L54.3998 29.6ZM23.6998 23.1C25.3998 23 26.7998 23 27.9998 23C31.8998 23 34.9998 26.1 34.9998 30C34.9998 33.9 31.8998 37 27.9998 37C24.0998 37 20.9998 33.9 20.9998 30C20.9998 28.1 21.8998 25.7 23.6998 23.1ZM28.4998 46C13.6998 46 6.39981 33.4 4.7998 30.3C10.9998 25.8 16.5998 24 21.0998 23.4C19.6998 25.7 18.9998 28 18.9998 30C18.9998 35 22.9998 39 27.9998 39C32.9998 39 36.9998 35 36.9998 30C36.9998 25 32.9998 21 27.9998 21C27.1998 21 26.3998 21 25.3998 21C27.3998 18.8 29.9998 16.5 33.2998 14.4C45.3998 16.8 51.2998 27.7 52.3998 29.9C51.0998 32.5 43.7998 46 28.4998 46Z" fill="#15E0AF"/>
</svg>
