<svg xmlns="http://www.w3.org/2000/svg" width="487" height="61" fill="none" viewBox="0 0 487 61"><path fill="#15E0AF" fill-rule="evenodd" d="M0 0h146.671c25.449 0 42.974.597 62.106 1.248 2.608.089 5.246.179 7.938.268C239.037 2.258 265.681 3 311.24 3c25.381 0 45.283-.585 64.98-1.163l7.15-.209C405.515.99 427.981.458 457.468.934l28.996.468-.936 57.992-28.996-.467c-28.195-.455-49.654.048-71.491.677-2.363.068-4.733.138-7.118.208-19.69.579-40.408 1.188-66.683 1.188-46.331 0-73.631-.758-96.451-1.516-2.735-.09-5.396-.181-8.01-.27-19.092-.65-35.69-1.214-60.108-1.214H0V0Z" clip-rule="evenodd" opacity=".3"/></svg>