<svg width="93" height="48" viewBox="0 0 93 48" fill="none" xmlns="http://www.w3.org/2000/svg">
<path d="M13.9465 9C6.24422 9 0 15.2681 0 23.0001C0 30.7324 6.24422 37 13.9465 37C21.6496 37 27.8932 30.7324 27.8932 23.0001C27.8932 15.2686 21.6496 9.00067 13.9463 9.00067L13.9465 9ZM20.3423 29.1921C20.0925 29.6034 19.5562 29.7338 19.1465 29.4814C15.872 27.4735 11.7498 27.0188 6.89522 28.1322C6.42741 28.2392 5.96111 27.945 5.85452 27.4752C5.74744 27.0054 6.03938 26.5373 6.50835 26.4303C11.821 25.2119 16.378 25.7365 20.0542 27.9918C20.4638 28.2442 20.5937 28.7809 20.3423 29.1921ZM22.0493 25.3801C21.7345 25.8937 21.065 26.0558 20.5538 25.7398C16.805 23.4267 11.0905 22.7568 6.65641 24.108C6.08135 24.2824 5.47398 23.957 5.29944 23.3808C5.12624 22.8035 5.4505 22.1949 6.02456 22.0194C11.0895 20.4767 17.3862 21.224 21.6912 23.8796C22.2025 24.1956 22.364 24.8677 22.0493 25.3802V25.3801ZM22.1958 21.4105C17.701 18.7304 10.285 18.484 5.99341 19.7915C5.30427 20.0014 4.5755 19.6108 4.36666 18.919C4.15782 18.2269 4.54652 17.4958 5.23616 17.2855C10.1626 15.7842 18.3521 16.0743 23.5272 19.1583C24.1484 19.5276 24.3515 20.3312 23.9835 20.9526C23.6171 21.5749 22.8144 21.78 22.1965 21.4105H22.1958ZM37.9438 21.9241C35.5356 21.3477 35.1076 20.9431 35.1076 20.093C35.1076 19.2898 35.8604 18.7493 36.9812 18.7493C38.067 18.7493 39.1429 19.1598 40.272 20.0047C40.3053 20.0303 40.3486 20.0405 40.3903 20.0338C40.4336 20.0274 40.4702 20.0042 40.4952 19.9693L41.6709 18.3055C41.7192 18.2369 41.7059 18.1425 41.641 18.0901C40.297 17.008 38.7848 16.4819 37.0162 16.4819C34.4165 16.4819 32.5996 18.0482 32.5996 20.2892C32.5996 22.6925 34.1667 23.5434 36.8746 24.2003C39.1779 24.7331 39.5676 25.1795 39.5676 25.9772C39.5676 26.8616 38.7815 27.4117 37.5158 27.4117C36.1102 27.4117 34.9627 26.9352 33.6804 25.8218C33.6488 25.7933 33.6054 25.7816 33.5655 25.7833C33.5222 25.7867 33.4839 25.8067 33.4572 25.8385L32.1382 27.4133C32.0833 27.4802 32.0899 27.5772 32.1532 27.634C33.6454 28.9715 35.4807 29.677 37.4625 29.677C40.2637 29.677 42.074 28.1406 42.074 25.7616C42.079 23.7542 40.8815 22.6425 37.9488 21.9263L37.9438 21.9241ZM48.4125 19.5401C47.1984 19.5401 46.2025 20.0202 45.3798 21.0041V19.8967C45.3798 19.8093 45.3098 19.738 45.2232 19.738H43.0665C42.9799 19.738 42.91 19.8093 42.91 19.8967V32.2014C42.91 32.2883 42.9799 32.3602 43.0665 32.3602H45.2232C45.3098 32.3602 45.3798 32.2883 45.3798 32.2014V28.3178C46.2025 29.2423 47.1984 29.6954 48.4125 29.6954C50.6691 29.6954 52.954 27.9517 52.954 24.6182C52.9573 21.2841 50.6724 19.5399 48.4141 19.5399L48.4125 19.5401ZM50.4459 24.6182C50.4459 26.315 49.405 27.5003 47.9128 27.5003C46.439 27.5003 45.3265 26.2615 45.3265 24.6182C45.3265 22.9748 46.439 21.7364 47.9128 21.7364C49.38 21.7362 50.4459 22.9479 50.4459 24.6181V24.6182ZM58.8078 19.5401C55.9017 19.5401 53.6251 21.7863 53.6251 24.6545C53.6251 27.4919 55.8867 29.7137 58.7729 29.7137C61.689 29.7137 63.9722 27.4752 63.9722 24.6182C63.9722 21.771 61.7039 19.5404 58.8078 19.5404V19.5401ZM58.8078 27.517C57.2623 27.517 56.0966 26.2698 56.0966 24.6174C56.0966 22.9575 57.2224 21.7529 58.7729 21.7529C60.3283 21.7529 61.5008 22.9996 61.5008 24.6537C61.5008 26.3133 60.3683 27.517 58.8078 27.517ZM70.1775 19.738H67.8043V17.3029C67.8043 17.2156 67.7343 17.1444 67.6477 17.1444H65.4911C65.4044 17.1444 65.3328 17.2156 65.3328 17.3029V19.738H64.297C64.2104 19.738 64.1404 19.8093 64.1404 19.8967V21.7569C64.1404 21.8442 64.2104 21.9156 64.297 21.9156H65.3328V26.7296C65.3328 28.6739 66.2971 29.6602 68.2006 29.6602C68.9734 29.6602 69.6146 29.4998 70.2191 29.1554C70.2691 29.1286 70.299 29.0751 70.299 29.0183V27.2462C70.299 27.1927 70.2707 27.1408 70.2241 27.1124C70.1775 27.0823 70.1192 27.0806 70.0709 27.1057C69.6562 27.3147 69.2548 27.4117 68.8052 27.4117C68.114 27.4117 67.8043 27.0957 67.8043 26.3902V21.9164H70.1775C70.2641 21.9164 70.334 21.8452 70.334 21.7578V19.8977C70.3373 19.8103 70.2674 19.739 70.1791 19.739L70.1775 19.738ZM78.4445 19.7476V19.4485C78.4445 18.5686 78.7809 18.1762 79.5336 18.1762C79.9833 18.1762 80.3447 18.2658 80.7494 18.4013C80.7993 18.417 80.851 18.4091 80.8909 18.3792C80.9326 18.3493 80.9559 18.3013 80.9559 18.2505V16.4265C80.9559 16.3568 80.9126 16.2951 80.8443 16.2746C80.418 16.147 79.8717 16.0161 79.0523 16.0161C77.0622 16.0161 76.008 17.1419 76.008 19.2706V19.7287H74.9721C74.8855 19.7287 74.8139 19.7999 74.8139 19.8872V21.7569C74.8139 21.8442 74.8855 21.9156 74.9721 21.9156H76.008V29.3393C76.008 29.4279 76.0796 29.4981 76.1662 29.4981H78.3212C78.4095 29.4981 78.4794 29.4279 78.4794 29.3393V21.9161H80.4929L83.5772 29.3393C83.2275 30.1183 82.8827 30.2738 82.4131 30.2738C82.0334 30.2738 81.632 30.1601 81.224 29.9344C81.1857 29.9144 81.1391 29.911 81.0991 29.9227C81.0575 29.9378 81.0225 29.9679 81.0058 30.008L80.2747 31.6179C80.2398 31.6948 80.2697 31.7834 80.343 31.8236C81.1058 32.2382 81.7936 32.4154 82.6446 32.4154C84.2367 32.4154 85.1177 31.6698 85.8921 29.6669L89.6326 19.9642C89.6526 19.9154 89.6459 19.8603 89.6159 19.817C89.5876 19.774 89.5393 19.7481 89.4877 19.7481H87.2427C87.1745 19.7481 87.1145 19.791 87.0929 19.8544L84.7929 26.447L82.2749 19.8501C82.2516 19.7887 82.1933 19.7481 82.1283 19.7481H78.4445V19.7476ZM73.6515 19.738H71.4948C71.4082 19.738 71.3366 19.8093 71.3366 19.8967V29.3393C71.3366 29.4279 71.4082 29.4981 71.4948 29.4981H73.6515C73.7381 29.4981 73.8097 29.4279 73.8097 29.3393V19.8974C73.8097 19.8099 73.7397 19.7387 73.6515 19.7387V19.738ZM72.5856 15.4383C71.7313 15.4383 71.0385 16.1324 71.0385 16.9899C71.0385 17.8479 71.7313 18.5429 72.5856 18.5429C73.44 18.5429 74.1311 17.8479 74.1311 16.9899C74.1311 16.1326 73.4383 15.4383 72.5856 15.4383ZM91.4745 22.7742C90.6218 22.7742 89.9573 22.0863 89.9573 21.2509C89.9573 20.4155 90.6301 19.7197 91.4828 19.7197C92.3355 19.7197 93 20.4074 93 21.2422C93 22.0776 92.3272 22.7742 91.4745 22.7742ZM91.4828 19.8711C90.7051 19.8711 90.1172 20.4914 90.1172 21.2509C90.1172 22.01 90.7018 22.6219 91.4745 22.6219C92.2522 22.6219 92.8401 22.0022 92.8401 21.2422C92.8401 20.483 92.2556 19.8711 91.4828 19.8711ZM91.8192 21.3988L92.2489 22.002H91.8858L91.4995 21.4486H91.1681V22.002H90.865V20.4031H91.5744C91.9458 20.4031 92.1889 20.5932 92.1889 20.9132C92.1906 21.1753 92.0391 21.3355 91.8209 21.3988H91.8192ZM91.5628 20.6774H91.1681V21.1832H91.5628C91.7593 21.1832 91.8775 21.0864 91.8775 20.93C91.8775 20.7655 91.7593 20.6774 91.5628 20.6774Z" fill="#42425A"/>
</svg>
