<svg width="76" height="48" viewBox="0 0 76 48" fill="none" xmlns="http://www.w3.org/2000/svg">
<g clip-path="url(#clip0)">
<path fill-rule="evenodd" clip-rule="evenodd" d="M46.7664 35.8995C42.3857 39.1246 36.0362 40.8454 30.5694 40.8454C22.9041 40.8454 16.0033 38.0135 10.7826 33.3037C10.3724 32.9333 10.74 32.4285 11.2322 32.717C16.8663 35.9913 23.8327 37.9611 31.0288 37.9611C35.882 37.9611 41.2208 36.9582 46.1298 34.8769C46.8714 34.5622 47.4915 35.362 46.7664 35.8995" fill="#42425A"/>
<path fill-rule="evenodd" clip-rule="evenodd" d="M48.5875 33.8182C48.0297 33.1037 44.8861 33.4806 43.4751 33.6478C43.0453 33.7002 42.9797 33.3266 43.3669 33.0578C45.8706 31.2977 49.9789 31.8058 50.4579 32.3957C50.937 32.989 50.3332 37.1023 47.9805 39.0656C47.6195 39.3671 47.275 39.2065 47.4358 38.8067C47.9641 37.4891 49.1487 34.536 48.5875 33.8182" fill="#42425A"/>
<path fill-rule="evenodd" clip-rule="evenodd" d="M43.5736 20.6325V18.9217C43.5736 18.6627 43.7705 18.489 44.0067 18.489H51.6754C51.9215 18.489 52.1183 18.666 52.1183 18.9217V20.3867C52.1151 20.6325 51.9083 20.9537 51.5408 21.4618L47.5671 27.1287C49.0437 27.0926 50.6023 27.3122 51.9411 28.0661C52.243 28.2365 52.3251 28.4856 52.348 28.7314V30.557C52.348 30.8061 52.0724 31.0978 51.7836 30.9471C49.4243 29.7114 46.2906 29.577 43.6819 30.9602C43.4161 31.1044 43.1372 30.816 43.1372 30.5669V28.833C43.1372 28.5544 43.1405 28.0792 43.4194 27.6564L48.0232 21.0619H44.0166C43.7705 21.0619 43.5736 20.8882 43.5736 20.6325" fill="#42425A"/>
<path fill-rule="evenodd" clip-rule="evenodd" d="M15.5998 31.3076H13.2667C13.0435 31.2912 12.8664 31.124 12.8499 30.911V18.9511C12.8499 18.7119 13.0501 18.5218 13.2995 18.5218H15.4751C15.7015 18.5316 15.882 18.7053 15.8984 18.9216V20.4851H15.941C16.5087 18.9741 17.5751 18.2694 19.0124 18.2694C20.4726 18.2694 21.3848 18.9741 22.0411 20.4851C22.6055 18.9741 23.8885 18.2694 25.2634 18.2694C26.2413 18.2694 27.311 18.6726 27.964 19.5772C28.7023 20.5834 28.5514 22.0452 28.5514 23.3267L28.5481 30.875C28.5481 31.1142 28.348 31.3076 28.0986 31.3076H25.7688C25.5358 31.2912 25.3488 31.1044 25.3488 30.875V24.5361C25.3488 24.0314 25.3947 22.7728 25.2831 22.2943C25.1092 21.4913 24.5875 21.2651 23.9115 21.2651C23.3471 21.2651 22.7565 21.642 22.5169 22.2451C22.2774 22.8482 22.3004 23.8577 22.3004 24.5361V30.875C22.3004 31.1142 22.1002 31.3076 21.8508 31.3076H19.521C19.2848 31.2912 19.101 31.1044 19.101 30.875L19.0977 24.5361C19.0977 23.2022 19.3176 21.2389 17.6605 21.2389C15.9837 21.2389 16.0493 23.153 16.0493 24.5361V30.875C16.0493 31.1142 15.8491 31.3076 15.5998 31.3076" fill="#42425A"/>
<path fill-rule="evenodd" clip-rule="evenodd" d="M58.7205 18.2694C62.1824 18.2694 64.056 21.2389 64.056 25.0147C64.056 28.6626 61.9855 31.5567 58.7205 31.5567C55.321 31.5567 53.4703 28.5872 53.4703 24.8868C53.4703 21.1635 55.3439 18.2694 58.7205 18.2694V18.2694ZM58.7402 20.7112C57.0207 20.7112 56.9125 23.0514 56.9125 24.5099C56.9125 25.9717 56.8895 29.092 58.7205 29.092C60.5285 29.092 60.6139 26.5748 60.6139 25.0409C60.6139 24.0314 60.5712 22.8252 60.266 21.8682C60.0035 21.0357 59.4818 20.7112 58.7402 20.7112" fill="#42425A"/>
<path fill-rule="evenodd" clip-rule="evenodd" d="M68.545 31.3076H66.2218C65.9888 31.2912 65.8017 31.1044 65.8017 30.875L65.7985 18.9118C65.8182 18.6922 66.0118 18.5218 66.248 18.5218H68.4104C68.6139 18.5316 68.7812 18.6693 68.8272 18.8561V20.685H68.8698C69.5228 19.0495 70.4383 18.2694 72.0495 18.2694C73.0963 18.2694 74.1168 18.6463 74.7731 19.6788C75.3834 20.6358 75.3834 22.2451 75.3834 23.4021V30.9307C75.3572 31.1404 75.1635 31.3076 74.9339 31.3076H72.5942C72.3809 31.2912 72.2037 31.1339 72.1808 30.9307V24.4345C72.1808 23.1268 72.3317 21.2127 70.7205 21.2127C70.1529 21.2127 69.6311 21.5929 69.3719 22.1697C69.0438 22.9006 69.0011 23.6282 69.0011 24.4345V30.875C68.9978 31.1142 68.7944 31.3076 68.545 31.3076" fill="#42425A"/>
<path fill-rule="evenodd" clip-rule="evenodd" d="M37.4604 25.5948C37.4604 26.5026 37.4833 27.2598 37.0239 28.066C36.6531 28.7216 36.0625 29.1247 35.4095 29.1247C34.5137 29.1247 33.9886 28.443 33.9886 27.4368C33.9886 25.4505 35.7704 25.09 37.4604 25.09V25.5948V25.5948ZM39.8131 31.2748C39.6589 31.4124 39.4358 31.4223 39.2618 31.3305C38.4874 30.6881 38.3463 30.3898 37.923 29.7769C36.6433 31.0814 35.7343 31.4714 34.0772 31.4714C32.1117 31.4714 30.5858 30.262 30.5858 27.8399C30.5858 25.9487 31.6096 24.6606 33.0731 24.0314C34.3398 23.4742 36.1084 23.3758 37.4604 23.2218V22.9203C37.4604 22.3663 37.503 21.7108 37.1749 21.2323C36.8927 20.8029 36.348 20.626 35.8656 20.626C34.9763 20.626 34.1855 21.0815 33.9919 22.0255C33.9526 22.2352 33.7983 22.4417 33.585 22.4516L31.3242 22.209C31.1338 22.1664 30.9205 22.0124 30.9763 21.7207C31.4948 18.9806 33.9755 18.1547 36.1937 18.1547C37.3291 18.1547 38.8123 18.4562 39.7081 19.3149C40.8435 20.3736 40.7352 21.7862 40.7352 23.3234V26.9549C40.7352 28.0464 41.188 28.5249 41.6146 29.1149C41.7623 29.3246 41.7951 29.577 41.6047 29.7343C41.1289 30.1309 40.2823 30.8684 39.8164 31.2813L39.8131 31.2748" fill="#42425A"/>
<path fill-rule="evenodd" clip-rule="evenodd" d="M6.87452 25.595C6.87452 26.5029 6.89748 27.26 6.43809 28.0663C6.06729 28.7218 5.47992 29.1249 4.82364 29.1249C3.92782 29.1249 3.40608 28.4432 3.40608 27.437C3.40608 25.4508 5.18788 25.0903 6.87452 25.0903V25.595V25.595ZM9.22727 31.275C9.07305 31.4127 8.84991 31.4225 8.676 31.3308C7.90159 30.6883 7.76377 30.3901 7.33719 29.7772C6.05745 31.0817 5.15178 31.4717 3.4914 31.4717C1.52913 31.4717 0 30.2623 0 27.8401C0 25.949 1.02708 24.6609 2.48729 24.0316C3.75391 23.4744 5.52258 23.3761 6.87452 23.222V22.9205C6.87452 22.3666 6.91717 21.7111 6.59232 21.2326C6.30683 20.8032 5.76212 20.6262 5.28304 20.6262C4.39378 20.6262 3.59969 21.0818 3.40608 22.0257C3.36671 22.2355 3.21248 22.442 3.00247 22.4518L0.738313 22.2093C0.547992 22.1667 0.337983 22.0126 0.390485 21.7209C0.912226 18.9809 3.38968 18.1549 5.6079 18.1549C6.74326 18.1549 8.22645 18.4564 9.12227 19.3152C10.2576 20.3738 10.1493 21.7865 10.1493 23.3236V26.9552C10.1493 28.0466 10.6022 28.5251 11.0288 29.1151C11.1797 29.3249 11.2125 29.5772 11.0222 29.7346C10.5464 30.1312 9.69979 30.8686 9.23383 31.2816L9.22727 31.275" fill="#42425A"/>
</g>
<defs>
<clipPath id="clip0">
<rect width="75.3834" height="48" fill="white"/>
</clipPath>
</defs>
</svg>
