<svg width="88" height="48" viewBox="0 0 88 48" fill="none" xmlns="http://www.w3.org/2000/svg">
<path d="M25.5868 28.0041C26.1316 28.2877 27.1002 28.6726 28.0284 28.6523C28.8759 28.6523 29.3199 28.1864 29.3199 27.6394C29.3199 27.0924 28.997 26.7277 28.089 26.201C26.959 25.5527 26.1114 24.641 26.1114 23.4457C26.1114 21.3387 27.9074 19.8395 30.5306 19.8395C31.6808 19.8395 32.5687 20.0624 33.053 20.346L32.3669 22.4733C31.7817 22.2099 31.1562 22.0681 30.5104 22.0681C29.6629 22.0681 29.1181 22.453 29.1181 23.0608C29.1181 23.547 29.5015 23.8914 30.2683 24.2966C31.4387 24.9652 32.4072 25.8768 32.4072 27.1734C32.4072 29.564 30.4701 30.9214 27.7863 30.9011C26.5554 30.8809 25.4052 30.5567 24.8402 30.1515C24.8604 30.1515 25.5868 28.0041 25.5868 28.0041ZM33.0126 30.8201L35.9184 15.5851H38.9048L37.7546 21.4805L37.795 21.44C38.6022 20.4878 39.6313 19.8193 40.9631 19.8193C42.5169 19.8193 43.4047 20.8323 43.4047 22.5138C43.4047 23.0405 43.324 23.8711 43.1828 24.5397L42.0124 30.7998H39.0259L40.1559 24.722C40.2366 24.3169 40.277 23.7699 40.277 23.3647C40.277 22.7164 40.0147 22.2301 39.3488 22.2301C38.4004 22.2301 37.3712 23.5065 36.9878 25.4919L35.9991 30.7998L33.0126 30.8201ZM54.2206 24.013C54.2206 27.7407 51.8395 30.9011 48.3082 30.9011C45.6244 30.9011 44.1917 29.0373 44.1917 26.7075C44.1917 23.081 46.5728 19.8193 50.1646 19.8193C52.9695 19.8193 54.2206 21.8655 54.2206 24.013ZM47.2589 26.6467C47.2589 27.7407 47.6826 28.6118 48.7118 28.6118C50.2857 28.6118 51.1736 25.7755 51.1736 23.9319C51.1736 23.0405 50.8305 22.1288 49.7611 22.1288C48.1468 22.1086 47.2589 24.9246 47.2589 26.6467ZM53.5143 35.0543L55.5928 24.0737C55.8349 22.8379 56.077 21.2374 56.1981 20.1029H58.8415L58.6599 21.8047H58.7003C59.5074 20.6702 60.6778 19.9206 61.8684 19.9206C64.0477 19.9206 64.9356 21.6831 64.9356 23.6888C64.9356 27.3355 62.6352 30.9417 59.1241 30.9417C58.3976 30.9417 57.7115 30.8201 57.3685 30.5365H57.308L56.4806 35.0543H53.5143ZM57.7721 28.2066C58.0949 28.47 58.4581 28.6321 59.003 28.6321C60.6778 28.6321 61.828 25.8768 61.828 23.9319C61.828 23.1216 61.5455 22.2707 60.6375 22.2707C59.5882 22.2707 58.6196 23.5065 58.2765 25.3906L57.7721 28.2066ZM65.0365 30.8201L67.0543 20.1029H70.061L68.0229 30.8201H65.0365ZM68.9108 18.9887C68.0633 18.9887 67.4983 18.2593 67.4983 17.3679C67.4983 16.3955 68.2651 15.5648 69.2135 15.5648C70.1215 15.5648 70.7067 16.2739 70.7067 17.1451C70.6865 18.2593 69.8794 18.9684 68.9512 18.9684C68.9512 18.9887 68.9108 18.9887 68.9108 18.9887ZM70.626 30.8201L72.2 22.3517H70.8076L71.2314 20.1029H72.6237L72.7044 19.5559C72.9466 18.2998 73.4107 17.0032 74.4398 16.1523C75.247 15.4635 76.2963 15.1394 77.3657 15.1394C78.0922 15.1394 78.637 15.2407 78.98 15.4028L78.3949 17.7528C78.0922 17.6515 77.7693 17.5908 77.4465 17.5908C76.4577 17.5908 75.8523 18.5429 75.6707 19.5762L75.5698 20.1232H77.6482L77.2447 22.372H75.1864L73.6125 30.8404L70.626 30.8201ZM81.3813 20.1029L81.8656 24.9044C81.9665 25.7553 82.0472 26.5859 82.1279 27.4368H82.1683C82.4105 26.8695 82.6324 26.0389 83.0562 24.8841L84.8723 20.1029H88L84.3476 27.9433C83.0562 30.6378 81.7849 32.6029 80.4329 33.8793C79.3634 34.872 78.1124 35.3784 77.507 35.5L76.6797 32.9473C77.1841 32.765 77.8097 32.5016 78.3747 32.0964C79.0608 31.6102 79.646 30.9619 80.0092 30.2934C80.0899 30.1313 80.1101 30.03 80.0697 29.8274L78.2738 20.0827C78.2334 20.1029 81.3813 20.1029 81.3813 20.1029ZM14.6297 13.3768L13.9032 13.5997C13.8225 13.2958 13.7014 13.0122 13.5602 12.7285C13.0355 11.7358 12.2889 11.2091 11.3809 11.2091C11.3203 11.2091 11.2598 11.2091 11.1993 11.2293C11.1791 11.1888 11.1387 11.1686 11.1186 11.128C10.715 10.7026 10.2105 10.5 9.60514 10.5C8.41458 10.5405 7.24421 11.3914 6.2958 12.9109C5.6299 13.9846 5.10525 15.3217 4.964 16.3752L2.64343 17.1045C1.95735 17.3274 1.93717 17.3477 1.85646 17.9959C1.79592 18.4822 0 32.4003 0 32.4003L14.8718 34.9733V13.3566C14.7507 13.3566 14.6902 13.3566 14.6297 13.3768ZM11.1993 14.4506L8.69709 15.2407C8.93923 14.3088 9.40335 13.3768 9.96836 12.769C10.1701 12.5462 10.4728 12.2828 10.8159 12.141C11.1387 12.8298 11.1993 13.782 11.1993 14.4506ZM9.58496 11.3104C9.8271 11.2901 10.0894 11.3711 10.2912 11.4927C9.94818 11.675 9.64549 11.9182 9.38317 12.2018C8.63655 13.0122 8.05136 14.2682 7.8294 15.4838L5.75097 16.1321C6.17473 14.2277 7.74868 11.3712 9.58496 11.3104ZM7.28457 22.1694C7.36528 23.4457 10.6948 23.7091 10.8764 26.6872C11.0177 29.0373 9.64549 30.6378 7.64779 30.7593C5.2465 30.9214 3.93488 29.5032 3.93488 29.5032L4.43935 27.3355C4.43935 27.3355 5.77115 28.3485 6.82045 28.2674C7.50654 28.2269 7.76886 27.6596 7.7285 27.2545C7.62761 25.5932 4.92364 25.6945 4.74203 22.9797C4.60078 20.6904 6.09401 18.3606 9.40335 18.158C10.6746 18.077 11.3203 18.4011 11.3203 18.4011L10.5737 21.2374C10.5737 21.2374 9.72621 20.8525 8.73745 20.9133C7.28457 21.0146 7.26439 21.9465 7.28457 22.1694ZM11.9862 14.2075C11.9862 13.5997 11.9055 12.769 11.623 12.0397C12.5109 12.2018 12.9548 13.235 13.1566 13.8428C13.1364 13.8428 11.9862 14.2075 11.9862 14.2075ZM15.2956 34.9327L21.4703 33.393C21.4703 33.393 18.8067 15.3622 18.8067 15.2407C18.7865 15.1394 18.7058 15.0583 18.5847 15.0381C18.504 15.0381 16.7686 14.9976 16.7686 14.9976C16.7686 14.9976 15.7193 13.9643 15.3158 13.5794V34.9327H15.2956Z" fill="#42425A"/>
</svg>
