<svg xmlns="http://www.w3.org/2000/svg" width="152" height="132" fill="none" viewBox="0 0 152 132"><g filter="url(#prefix__a)"><path fill="#fff" d="M31.643 67.816c-5.446-30.887.006-38.675 30.894-44.121l11.648-2.054c30.887-5.446 38.675.007 44.121 30.894l2.054 11.648c5.446 30.887-.007 38.675-30.894 44.121l-11.648 2.054c-30.887 5.446-38.675-.006-44.121-30.894l-2.054-11.648Z"/></g><path fill="#0A0A2D" d="M100 51.998v20c0 3.9-3.1 7-7 7H76.4l-10.7 10.7c-.2.2-.4.3-.7.3-.1 0-.3 0-.4-.1-.4-.1-.6-.5-.6-.9v-10h-5c-3.9 0-7-3.1-7-7v-20c0-3.9 3.1-7 7-7h14c.6 0 1 .4 1 1s-.4 1-1 1H59c-2.8 0-5 2.2-5 5v20c0 2.8 2.2 5 5 5h6c.6 0 1 .4 1 1v8.6l9.3-9.3c.2-.2.4-.3.7-.3h17c2.8 0 5-2.2 5-5v-20c0-2.8-2.2-5-5-5l-8.3-.1h-.1c-2.1 0-4.2.9-5.7 2.3l-14 14c-.2.2-.3.4-.3.7 0 .3.1.5.3.7l6.4 6.4c.4.4 1 .4 1.4 0l10.3-10.2v-6.8h-4c-.6 0-1-.4-1-1s.4-1 1-1h5c.6 0 1 .4 1 1v8.2c0 .3-.1.5-.3.7l-10.6 10.6c-1.1 1.1-3.1 1.1-4.2 0l-6.4-6.4c-.6-.6-.9-1.3-.9-2.1s.3-1.6.9-2.1l14-14c1.9-1.9 4.5-3 7.1-3h.1l8.3.1c3.9 0 7 3.1 7 7Zm-27 7.5c0-1.9 1.6-3.5 3.5-3.5s3.5 1.6 3.5 3.5-1.6 3.5-3.5 3.5-3.5-1.6-3.5-3.5Zm2 0c0 .8.7 1.5 1.5 1.5s1.5-.7 1.5-1.5-.7-1.5-1.5-1.5-1.5.7-1.5 1.5Z"/><defs><filter id="prefix__a" width="104.432" height="104.432" x="23.786" y="17.785" color-interpolation-filters="sRGB" filterUnits="userSpaceOnUse"><feFlood flood-opacity="0" result="BackgroundImageFix"/><feColorMatrix in="SourceAlpha" values="0 0 0 0 0 0 0 0 0 0 0 0 0 0 0 0 0 0 127 0"/><feOffset dy="4"/><feGaussianBlur stdDeviation="3"/><feColorMatrix values="0 0 0 0 0 0 0 0 0 0 0 0 0 0 0 0 0 0 0.04 0"/><feBlend in2="BackgroundImageFix" result="effect1_dropShadow"/><feColorMatrix in="SourceAlpha" values="0 0 0 0 0 0 0 0 0 0 0 0 0 0 0 0 0 0 127 0"/><feMorphology in="SourceAlpha" radius="2" result="effect2_dropShadow"/><feOffset dy="3"/><feGaussianBlur stdDeviation="1"/><feColorMatrix values="0 0 0 0 0 0 0 0 0 0 0 0 0 0 0 0 0 0 0.12 0"/><feBlend in2="effect1_dropShadow" result="effect2_dropShadow"/><feBlend in="SourceGraphic" in2="effect2_dropShadow" result="shape"/></filter></defs></svg>