<svg width="56" height="56" viewBox="0 0 56 56" fill="none" xmlns="http://www.w3.org/2000/svg">
<path d="M51.8999 31.6C51.1999 29.9 49.9999 28.5 48.4999 27.3C48.7999 25.4 48.6999 23.5 47.9999 21.8C47.2999 20.1 46.1999 18.7 44.5999 17.5C44.8999 15.6 44.6999 13.7 44.0999 12.1C42.6999 8.59999 39.0999 5.99999 34.1999 5.09999C29.3999 4.09999 23.8999 4.69999 18.9999 6.69999C10.3999 10.2 4.0999 15.6 3.3999 20.1L5.3999 20.4C5.8999 17.2 10.9999 12.1 19.7999 8.49999C24.2999 6.69999 29.3999 6.09999 33.7999 6.99999C37.9999 7.79999 41.0999 9.99999 42.1999 12.8C42.5999 13.9 42.7999 15.1 42.6999 16.3C41.2999 15.6 39.7999 15.1 38.0999 14.7C33.3999 13.8 27.8999 14.4 22.9999 16.3C12.4999 20.5 5.6999 27.6 7.6999 32.3C8.3999 34.1 10.2999 35.3 12.9999 35.8C11.4999 38 10.8999 40.2 11.6999 42C13.5999 46.8 23.3999 47.1 33.8999 42.9C38.7999 40.9 43.1999 37.5 45.8999 33.6C46.8999 32.2 47.6999 30.7 48.0999 29.2C48.9999 30 49.6999 31 50.1999 32.1C52.2999 37.3 47.9999 44.7 40.4999 49.1L41.4999 50.8C49.7999 46.1 54.2999 37.7 51.8999 31.6ZM9.3999 31.7C7.7999 27.8 15.5999 21.5 23.5999 18.3C26.6999 17 30.0999 16.4 33.3999 16.4C34.7999 16.4 36.2999 16.5 37.5999 16.8C39.3999 17.2 40.8999 17.7 42.2999 18.5C41.8999 20 41.1999 21.5 40.0999 23C39.7999 23.4 39.4999 23.8 39.0999 24.3C35.1999 24 30.8999 24.6 26.7999 26.3C21.3999 28.5 16.9999 31.4 14.1999 34.4C11.7999 34 9.9999 33.2 9.3999 31.7ZM37.3999 26.1C35.0999 28.4 32.0999 30.3 28.9999 31.5C25.0999 33.1 20.6999 34.1 17.0999 34.3C19.7999 31.9 23.6999 29.6 27.5999 28C30.8999 26.7 34.2999 26.1 37.3999 26.1ZM43.9999 32.7C41.4999 36.3 37.3999 39.5 32.8999 41.3C24.8999 44.5 14.8999 45.4 13.2999 41.5C12.6999 40 13.4999 38.2 15.0999 36.3C19.0999 36.5 24.2999 35.6 29.6999 33.4C33.6999 31.8 37.2999 29.3 39.9999 26.3C42.2999 26.6 44.4999 27.2 46.1999 28.2C45.7999 29.7 45.0999 31.2 43.9999 32.7ZM46.5999 26.2C45.0999 25.4 43.3999 24.9 41.4999 24.5C41.5999 24.4 41.6999 24.2 41.7999 24.1C42.7999 22.7 43.4999 21.2 43.9999 19.7C44.8999 20.5 45.5999 21.5 46.0999 22.6C46.4999 23.7 46.6999 24.9 46.5999 26.2Z" fill="#15E0AF"/>
</svg>
