<svg width="56" height="56" viewBox="0 0 56 56" fill="none" xmlns="http://www.w3.org/2000/svg">
<path d="M41 19C36.9 19 33.4 19.9 30.4 21.7C29.7 18.5 29.1 14.7 29 8.29999L35.6 14.7L37 13.3L29.4 5.89999C28.6 5.09999 27.4 5.09999 26.6 5.89999L19 13.3L20.4 14.7L27 8.19999C27.1 15.4 27.8 19.3 28.7 22.8C27.3 24 26 25.4 25 27C23.4 29.6 22 33.6 22.7 36.6C23 38 23.8 39.1 24.9 39.7C26.6 40.7 28.6 40.7 30.3 39.5C32.5 38 33.6 34.8 33 31.8C32.5 29.2 31.9 27.2 31.4 25.2C31.3 24.7 31.1 24.2 31 23.6C33.7 21.8 37 20.9 41 20.9C43.8 20.9 46 23.1 46 25.9V42.9C46 45.7 43.8 47.9 41 47.9H15C12.2 47.9 10 45.7 10 42.9V26C10 23.2 12.2 21 15 21H22.9V19H15C11.1 19 8 22.1 8 26V43C8 46.9 11.1 50 15 50H41C44.9 50 48 46.9 48 43V26C48 22.1 44.9 19 41 19ZM31 32.2C31.5 34.9 30.4 37 29.1 37.9C28.5 38.3 27.3 38.9 25.9 38C25.2 37.6 24.8 37 24.6 36.1C24.1 33.8 25.2 30.3 26.6 28.1C27.3 26.9 28.2 25.9 29.1 25C29.2 25.2 29.2 25.5 29.3 25.8C30 27.7 30.5 29.6 31 32.2Z" fill="#15E0AF"/>
</svg>
