<svg width="173" height="35" viewBox="0 0 173 35" fill="none" xmlns="http://www.w3.org/2000/svg">
<path d="M31.4662 0H25.052C22.5796 0 20.5568 1.96875 20.5568 4.375V23.1202C20.5568 27.5962 16.805 31.2476 12.2061 31.2476C7.60722 31.2476 3.85548 27.5962 3.85548 23.1202V4.375C3.85548 4.03846 4.14939 3.7524 4.49517 3.7524H10.9094C11.2552 3.7524 11.5491 4.03846 11.5491 4.375V23.1202C11.5491 24.9712 11.9814 26.7043 12.7594 28.2692C12.8977 28.5385 13.2089 28.6562 13.5028 28.5889C14.4537 28.3702 15.3355 27.9159 16.0443 27.3101C16.2691 27.125 16.3209 26.8221 16.1999 26.5529C15.6985 25.5096 15.4219 24.3486 15.4219 23.1202V4.375C15.4219 1.96875 13.3991 0 10.9267 0H4.49517C2.02283 0 0 1.96875 0 4.375V23.1202C0 29.6827 5.48065 35 12.2061 35C18.9316 35 24.4123 29.6659 24.4123 23.1202V4.375C24.4123 4.03846 24.7062 3.7524 25.052 3.7524H31.4662C31.812 3.7524 32.1059 4.03846 32.1059 4.375V23.1202C32.1059 27.2933 28.8556 30.7428 24.6889 31.1803C24.516 31.1971 24.3431 31.2981 24.2394 31.4327C23.5997 32.3077 22.8735 33.0986 22.0609 33.8053C21.646 34.1755 21.8535 34.8317 22.424 34.899C22.8735 34.9495 23.323 34.9832 23.7726 34.9832C30.498 34.9832 35.9787 29.649 35.9787 23.1034V4.375C35.9614 1.96875 33.9559 0 31.4662 0Z" fill="#15E0AF"/>
<path d="M65.6126 19.6541C65.6126 20.933 65.3878 22.094 64.9383 23.1373C64.4888 24.1806 63.8664 25.0556 63.0711 25.7791C62.293 26.5027 61.3594 27.058 60.2875 27.445C59.2156 27.832 58.0399 28.0339 56.7778 28.0339C55.5157 28.0339 54.3573 27.832 53.2681 27.445C52.1962 27.058 51.2626 26.5027 50.4673 25.7791C49.672 25.0556 49.0496 24.1806 48.6001 23.1373C48.1505 22.094 47.9258 20.933 47.9258 19.6541V6.14209H51.8331V19.5027C51.8331 20.1253 51.9196 20.7479 52.0752 21.3536C52.2481 21.9594 52.5074 22.5147 52.8878 23.0027C53.2681 23.4906 53.7695 23.8777 54.4092 24.1806C55.0316 24.4834 55.8269 24.6349 56.7432 24.6349C57.6769 24.6349 58.4549 24.4834 59.0773 24.1806C59.6997 23.8777 60.2184 23.4906 60.5987 23.0027C60.9791 22.5147 61.2557 21.9762 61.4113 21.3536C61.5842 20.7479 61.6534 20.1253 61.6534 19.5027V6.14209H65.5607V19.6541H65.6126Z" fill="white"/>
<path d="M76.6778 16.8776C76.3494 16.4569 75.8998 16.0867 75.312 15.7838C74.7415 15.4641 74.1018 15.3126 73.4275 15.3126C72.8224 15.3126 72.2864 15.4304 71.785 15.6828C71.2837 15.9184 71.0416 16.3223 71.0416 16.8944C71.0416 17.4497 71.3182 17.8535 71.8542 18.0891C72.4074 18.3247 73.2027 18.5602 74.2574 18.7958C74.8106 18.9136 75.3812 19.0819 75.9517 19.2838C76.5222 19.4857 77.0409 19.755 77.5077 20.0747C77.9745 20.4112 78.3549 20.8151 78.6315 21.303C78.9254 21.791 79.0637 22.3968 79.0637 23.1035C79.0637 23.9953 78.8909 24.7357 78.5451 25.3583C78.1993 25.9641 77.7498 26.4689 77.1792 26.8559C76.6087 27.2429 75.9517 27.5122 75.191 27.6804C74.4303 27.8487 73.6523 27.9328 72.857 27.9328C71.6986 27.9328 70.5748 27.7309 69.4856 27.3102C68.3964 26.9064 67.48 26.3175 66.7539 25.5434L69.209 23.3054C69.6239 23.8271 70.1599 24.2646 70.8168 24.6011C71.4738 24.9376 72.2173 25.1059 73.0126 25.1059C73.2892 25.1059 73.5485 25.0723 73.8251 25.0218C74.1018 24.9545 74.3611 24.8703 74.6032 24.7357C74.8452 24.6011 75.0354 24.4328 75.1737 24.2141C75.312 23.9953 75.3985 23.7261 75.3985 23.4064C75.3985 22.8006 75.1218 22.3631 74.5513 22.1107C73.9808 21.8415 73.1336 21.5891 71.9925 21.3199C71.4392 21.2021 70.886 21.0506 70.3673 20.8487C69.8487 20.6636 69.3646 20.4112 68.9496 20.0915C68.5347 19.7718 68.2062 19.3848 67.9641 18.9304C67.7221 18.4761 67.5838 17.8872 67.5838 17.2141C67.5838 16.4064 67.7567 15.7165 68.1025 15.1276C68.4482 14.5386 68.8978 14.0675 69.451 13.6973C70.0043 13.3271 70.644 13.041 71.3355 12.8727C72.0444 12.6876 72.7532 12.6035 73.4967 12.6035C74.5686 12.6035 75.6232 12.7886 76.6433 13.142C77.6633 13.5122 78.4759 14.0506 79.081 14.8078L76.6778 16.8776Z" fill="white"/>
<path d="M95.541 20.4449C95.541 20.6131 95.541 20.7646 95.541 20.9328C95.541 21.1011 95.5237 21.2526 95.5064 21.4208H84.1993C84.2339 21.9425 84.3722 22.4136 84.6142 22.8511C84.8563 23.2886 85.1675 23.6588 85.5651 23.9617C85.9628 24.2814 86.395 24.517 86.8964 24.7021C87.3978 24.8872 87.9165 24.9713 88.4524 24.9713C89.386 24.9713 90.1641 24.803 90.8038 24.4665C91.4434 24.13 91.9621 23.6756 92.3771 23.0867L94.8494 25.0218C93.3798 26.9569 91.2533 27.916 88.4697 27.916C87.3113 27.916 86.2567 27.7477 85.2712 27.3944C84.303 27.041 83.4559 26.553 82.747 25.8968C82.0382 25.2574 81.4849 24.4665 81.07 23.5242C80.6723 22.5819 80.4648 21.5218 80.4648 20.3439C80.4648 19.1828 80.6723 18.1227 81.07 17.1636C81.4676 16.2045 82.0209 15.3968 82.7297 14.7237C83.4386 14.0506 84.2685 13.529 85.2194 13.1588C86.1875 12.7886 87.2249 12.6035 88.3314 12.6035C89.3688 12.6035 90.3197 12.7718 91.2014 13.1083C92.0831 13.4449 92.8439 13.9328 93.4836 14.5891C94.1233 15.2453 94.6247 16.053 94.9877 17.029C95.3681 17.9881 95.541 19.1324 95.541 20.4449ZM91.8238 18.8127C91.8238 18.3583 91.7547 17.904 91.6163 17.4833C91.478 17.0627 91.2706 16.6925 90.9766 16.3727C90.6827 16.053 90.3197 15.8006 89.8701 15.5987C89.4206 15.4136 88.9019 15.3126 88.2968 15.3126C87.173 15.3126 86.2394 15.6324 85.4614 16.2886C84.6834 16.9449 84.2512 17.7862 84.182 18.8127H91.8238Z" fill="white"/>
<path d="M97.7363 13.0239H101.298V15.4302H101.367C101.782 14.5888 102.353 13.8989 103.096 13.3773C103.839 12.8557 104.704 12.5864 105.707 12.5864C105.845 12.5864 106.001 12.5864 106.173 12.6033C106.346 12.6201 106.485 12.6369 106.606 12.6706V15.9855C106.364 15.9182 106.139 15.8845 105.966 15.8677C105.793 15.8508 105.62 15.834 105.447 15.834C104.6 15.834 103.926 15.9855 103.407 16.2883C102.888 16.5912 102.491 16.9446 102.197 17.3821C101.903 17.8028 101.713 18.2403 101.609 18.6778C101.505 19.1153 101.453 19.4686 101.453 19.7379V27.4951H97.7363V13.0239Z" fill="white"/>
<path d="M111.722 4.69482V14.8583H111.809C111.999 14.6227 112.224 14.3703 112.518 14.1011C112.812 13.8318 113.157 13.5963 113.555 13.3775C113.953 13.1588 114.42 12.9737 114.973 12.8222C115.509 12.6708 116.114 12.6035 116.805 12.6035C117.86 12.6035 118.828 12.8054 119.71 13.1924C120.592 13.5794 121.37 14.1179 122.009 14.8078C122.649 15.4977 123.151 16.2886 123.496 17.2141C123.842 18.1395 124.015 19.1323 124.015 20.1924C124.015 21.2525 123.842 22.2621 123.496 23.1876C123.151 24.1299 122.666 24.9376 122.044 25.6275C121.422 26.3174 120.644 26.8727 119.745 27.2934C118.846 27.6972 117.826 27.916 116.684 27.916C115.63 27.916 114.644 27.6972 113.728 27.2597C112.812 26.8222 112.086 26.166 111.567 25.3246H111.498V27.4953H107.971V4.69482H111.722ZM120.229 20.1924C120.229 19.6371 120.142 19.065 119.969 18.5266C119.796 17.9713 119.537 17.4833 119.174 17.029C118.828 16.5915 118.379 16.2381 117.843 15.952C117.307 15.6828 116.667 15.5482 115.958 15.5482C115.284 15.5482 114.662 15.6828 114.126 15.9689C113.59 16.2549 113.123 16.6083 112.743 17.0626C112.362 17.5001 112.068 18.0049 111.878 18.577C111.688 19.1323 111.584 19.7044 111.584 20.2597C111.584 20.815 111.688 21.3871 111.878 21.9256C112.068 22.4809 112.362 22.9689 112.743 23.4232C113.123 23.8607 113.59 24.2141 114.126 24.5001C114.662 24.7693 115.267 24.904 115.958 24.904C116.684 24.904 117.307 24.7693 117.843 24.4833C118.379 24.1972 118.828 23.8439 119.174 23.3895C119.52 22.952 119.796 22.4472 119.969 21.8751C120.142 21.3198 120.229 20.7645 120.229 20.1924Z" fill="white"/>
<path d="M126.367 13.0239H129.929V15.4302H129.998C130.413 14.5888 130.983 13.8989 131.727 13.3773C132.47 12.8557 133.335 12.5864 134.337 12.5864C134.476 12.5864 134.631 12.5864 134.804 12.6033C134.977 12.6201 135.115 12.6369 135.236 12.6706V15.9855C134.994 15.9182 134.77 15.8845 134.597 15.8677C134.424 15.8508 134.251 15.834 134.078 15.834C133.231 15.834 132.557 15.9855 132.038 16.2883C131.519 16.5912 131.122 16.9446 130.828 17.3821C130.534 17.8028 130.344 18.2403 130.24 18.6778C130.136 19.1153 130.084 19.4686 130.084 19.7379V27.4951H126.367V13.0239Z" fill="white"/>
<path d="M145.557 25.661H145.47C145.09 26.3004 144.502 26.8389 143.672 27.2427C142.842 27.6466 141.909 27.8653 140.854 27.8653C140.249 27.8653 139.627 27.798 138.987 27.6466C138.347 27.4951 137.742 27.2427 137.189 26.8893C136.636 26.536 136.186 26.0817 135.823 25.5095C135.46 24.9374 135.287 24.2307 135.287 23.3893C135.287 22.2956 135.598 21.4374 136.238 20.798C136.86 20.1586 137.673 19.6706 138.676 19.3172C139.661 18.9807 140.768 18.7451 141.978 18.6442C143.188 18.5264 144.364 18.4759 145.522 18.4759V18.1057C145.522 17.197 145.194 16.5408 144.52 16.1033C143.845 15.6658 143.05 15.447 142.116 15.447C141.338 15.447 140.578 15.6153 139.851 15.935C139.125 16.2547 138.537 16.6417 138.053 17.1129L136.134 14.9086C136.981 14.1514 137.95 13.5793 139.056 13.1922C140.163 12.8052 141.286 12.6201 142.41 12.6201C143.724 12.6201 144.813 12.8052 145.678 13.1586C146.542 13.5288 147.217 13.9999 147.701 14.572C148.202 15.161 148.548 15.8004 148.738 16.524C148.928 17.2475 149.032 17.9711 149.032 18.6946V27.4951H145.557V25.661ZM145.488 20.899H144.658C144.053 20.899 143.43 20.9326 142.773 20.9663C142.116 21.0167 141.511 21.1345 140.941 21.3028C140.387 21.4711 139.921 21.7235 139.54 22.0264C139.16 22.3461 138.987 22.7667 138.987 23.3052C138.987 23.6417 139.056 23.9278 139.212 24.1634C139.367 24.399 139.575 24.5841 139.817 24.7187C140.059 24.8533 140.336 24.9542 140.647 25.0216C140.958 25.0889 141.269 25.1057 141.58 25.1057C142.86 25.1057 143.828 24.7692 144.485 24.1129C145.142 23.4567 145.47 22.548 145.47 21.4038V20.899H145.488Z" fill="white"/>
<path d="M151.66 8.11084C151.66 7.5219 151.885 7.01709 152.334 6.57959C152.784 6.14209 153.337 5.92334 154.029 5.92334C154.703 5.92334 155.291 6.12526 155.74 6.54594C156.207 6.96661 156.432 7.47142 156.432 8.09401C156.432 8.71661 156.207 9.23824 155.74 9.64209C155.274 10.0628 154.703 10.2647 154.029 10.2647C153.354 10.2647 152.784 10.0459 152.334 9.60844C151.885 9.20459 151.66 8.68296 151.66 8.11084ZM152.179 13.0243H155.896V27.4955H152.179V13.0243Z" fill="white"/>
<path d="M159.182 13.0242H162.709V15.3463H162.778C163.106 14.6227 163.677 13.9833 164.489 13.428C165.302 12.8727 166.27 12.6035 167.394 12.6035C168.362 12.6035 169.192 12.7718 169.884 13.1083C170.575 13.4449 171.146 13.8824 171.595 14.4208C172.045 14.9593 172.356 15.5819 172.563 16.2886C172.771 16.9953 172.875 17.7189 172.875 18.4593V27.5122H169.157V19.4857C169.157 19.065 169.123 18.6275 169.071 18.1564C169.002 17.7021 168.881 17.2814 168.673 16.9112C168.466 16.541 168.189 16.2381 167.826 15.9857C167.463 15.7501 166.979 15.6155 166.391 15.6155C165.786 15.6155 165.267 15.7333 164.835 15.9689C164.403 16.2045 164.04 16.4905 163.763 16.8607C163.487 17.2309 163.279 17.6348 163.124 18.1059C162.985 18.5771 162.899 19.0482 162.899 19.5362V27.4953H159.182V13.0242Z" fill="white"/>
</svg>
