<svg width="96" height="99" viewBox="0 0 96 99" fill="none" xmlns="http://www.w3.org/2000/svg">
<g filter="url(#filter0_dd)">
<path d="M8.38081 37.4343C11.3612 9.07766 18.0777 3.63879 46.4343 6.61919L57.1274 7.74308C85.4841 10.7235 90.923 17.4399 87.9426 45.7966L86.8187 56.4897C83.8383 84.8464 77.1218 90.2852 48.7651 87.3048L38.072 86.1809C9.71538 83.2005 4.27651 76.4841 7.25692 48.1274L8.38081 37.4343Z" fill="white"/>
</g>
<path d="M73.1008 48.2003C72.3008 44.7003 68.1008 42.5003 61.9008 42.5003C60.1008 42.5003 54.2008 43.0003 47.9008 48.7003C43.9008 45.5003 41.0008 41.7003 39.1008 39.2003C43.4008 39.9003 48.0008 40.1003 52.0008 39.7003C52.4008 39.7003 52.8008 39.4003 52.9008 39.0003C53.0008 38.6003 52.8008 38.2003 52.5008 37.9003C47.4008 34.3003 31.1008 27.1003 26.2008 25.0003C25.9008 24.9003 25.5008 24.9003 25.2008 25.1003C24.9008 25.3003 24.8008 25.7003 24.8008 26.0003C25.0008 30.7003 30.9008 48.0003 34.2008 51.3003C34.4008 51.5003 34.6008 51.6003 34.9008 51.6003C35.0008 51.6003 35.2008 51.6003 35.3008 51.5003C35.7008 51.3003 35.9008 51.0003 35.9008 50.6003C35.9008 47.1003 36.4008 42.8003 37.2008 39.8003C39.0008 42.3003 42.1008 46.5003 46.5008 50.0003C42.3008 54.4003 38.0008 61.3003 34.9008 72.2003L36.8008 72.8003C39.0008 65.3003 42.9008 57.0003 48.2008 51.3003C52.0008 54.0003 56.7008 56.0003 62.2008 56.0003C68.2008 56.0003 70.9008 54.2003 72.1008 52.7003C73.1008 51.4003 73.4008 49.8003 73.1008 48.2003ZM35.8008 37.3003C34.9008 39.6003 34.2008 43.7003 34.0008 47.5003C31.4008 42.6003 27.9008 32.5003 27.0008 27.6003C34.9008 31.0003 43.7008 35.1003 48.7008 37.8003C44.8008 37.9003 40.7008 37.5003 37.0008 36.6003C36.5008 36.5003 36.0008 36.8003 35.8008 37.3003ZM70.5008 51.5003C69.6008 52.7003 67.3008 54.1003 62.2008 54.1003C57.3008 54.1003 53.1008 52.3003 49.7008 49.9003C53.3008 46.6003 57.4008 44.5003 62.1008 44.5003C67.2008 44.5003 70.8008 46.1003 71.3008 48.7003C71.3008 49.2003 71.3008 50.4003 70.5008 51.5003Z" fill="#0A0A2D"/>
<defs>
<filter id="filter0_dd" x="0.53125" y="3.89453" width="94.1367" height="94.1357" filterUnits="userSpaceOnUse" color-interpolation-filters="sRGB">
<feFlood flood-opacity="0" result="BackgroundImageFix"/>
<feColorMatrix in="SourceAlpha" type="matrix" values="0 0 0 0 0 0 0 0 0 0 0 0 0 0 0 0 0 0 127 0" result="hardAlpha"/>
<feOffset dy="4"/>
<feGaussianBlur stdDeviation="3"/>
<feColorMatrix type="matrix" values="0 0 0 0 0 0 0 0 0 0 0 0 0 0 0 0 0 0 0.04 0"/>
<feBlend mode="normal" in2="BackgroundImageFix" result="effect1_dropShadow"/>
<feColorMatrix in="SourceAlpha" type="matrix" values="0 0 0 0 0 0 0 0 0 0 0 0 0 0 0 0 0 0 127 0" result="hardAlpha"/>
<feMorphology radius="2" operator="erode" in="SourceAlpha" result="effect2_dropShadow"/>
<feOffset dy="3"/>
<feGaussianBlur stdDeviation="1"/>
<feColorMatrix type="matrix" values="0 0 0 0 0 0 0 0 0 0 0 0 0 0 0 0 0 0 0.12 0"/>
<feBlend mode="normal" in2="effect1_dropShadow" result="effect2_dropShadow"/>
<feBlend mode="normal" in="SourceGraphic" in2="effect2_dropShadow" result="shape"/>
</filter>
</defs>
</svg>
