<svg width="96" height="99" viewBox="0 0 96 99" fill="none" xmlns="http://www.w3.org/2000/svg">
<g filter="url(#filter0_dd)">
<path d="M8.38081 37.4343C11.3612 9.07766 18.0777 3.63879 46.4343 6.61919L57.1274 7.74308C85.4841 10.7235 90.923 17.4399 87.9426 45.7966L86.8187 56.4897C83.8383 84.8464 77.1218 90.2852 48.7651 87.3048L38.072 86.1809C9.71538 83.2005 4.27651 76.4841 7.25692 48.1274L8.38081 37.4343Z" fill="white"/>
</g>
<path d="M68.4004 54.6002L60.7004 43.0002C59.7004 41.5002 58.4004 40.2002 56.8004 39.3002L55.8004 41.0002C57.1004 41.8002 58.2004 42.8002 59.0004 44.1002L60.4004 46.2002C57.4004 46.7002 54.3004 47.8002 51.5004 49.5002L48.5004 45.0002L46.8004 46.1002L49.8004 50.6002C47.1004 52.5002 44.8004 54.9002 43.3004 57.5002L41.9004 55.4002C39.3004 51.4002 39.9004 45.9002 43.2004 42.0002C44.7004 42.8002 46.3004 43.0002 47.8004 42.5002C48.9004 42.2002 51.1004 40.7002 51.6004 39.0002C51.8004 38.2002 51.7004 37.4002 51.1004 36.7002C49.0004 34.3002 45.7004 37.0002 44.0004 38.4002L43.6004 38.7002C43.3004 38.9002 43.1004 39.1002 42.8004 39.3002C42.1004 38.6002 41.6004 37.8002 41.4004 36.9002C41.3004 36.5002 41.2004 36.1002 41.2004 35.7002C41.4004 35.7002 44.2004 35.5002 46.0004 34.2002C46.3004 34.0002 48.5004 32.3002 48.7004 30.3002C48.8004 29.5002 48.5004 28.8002 48.0004 28.3002C46.3004 26.5002 43.1004 28.1002 42.0004 29.0002C40.4004 30.3002 39.5004 32.0002 39.3004 33.8002C38.2004 33.8002 36.6004 33.6002 35.3004 33.1002C34.2004 32.7002 33.4004 31.9002 32.8004 31.2002C34.0004 30.7002 35.1004 30.1002 35.9004 29.3002C36.9004 28.4002 37.7004 26.8002 37.1004 25.4002C36.7004 24.4002 35.6004 23.7002 34.4004 23.7002H34.3004C33.4004 23.7002 32.4004 24.1002 31.6004 24.9002C30.3004 26.1002 29.6004 28.1002 29.9004 29.9002C29.9004 30.0002 29.7004 30.0002 29.5004 30.0002C27.8004 30.1002 25.9004 29.8002 23.5004 29.1002L22.9004 31.0002C25.5004 31.8002 27.6004 32.1002 29.6004 32.0002C30.1004 32.0002 30.5004 31.9002 30.9004 31.8002C31.6004 33.0002 32.8004 34.3002 34.7004 35.0002C36.3004 35.6002 38.0004 35.8002 39.3004 35.8002C39.3004 36.3002 39.4004 36.9002 39.6004 37.5002C39.9004 38.8002 40.6004 39.9002 41.6004 40.9002C37.9004 45.4002 37.2004 51.9002 40.3004 56.6002L48.0004 68.2002C49.8004 70.9002 52.6004 72.8002 55.8004 73.4002C56.6004 73.6002 57.4004 73.6002 58.3004 73.6002C60.7004 73.6002 63.0004 72.9002 65.1004 71.5002C67.8004 69.7002 69.7004 66.9002 70.3004 63.7002C70.9004 60.5002 70.2004 57.4002 68.4004 54.6002ZM44.9004 40.4002L45.3004 40.1002C46.5004 39.2002 48.9004 37.2002 49.7004 38.2002C49.8004 38.3002 49.8004 38.4002 49.8004 38.6002C49.6004 39.4002 48.0004 40.5002 47.3004 40.7002C46.5004 40.9002 45.6004 40.9002 44.8004 40.6002C44.8004 40.6002 44.9004 40.5002 44.9004 40.4002ZM43.4004 30.6002C44.0004 30.1002 45.2004 29.6002 46.0004 29.6002C46.3004 29.6002 46.5004 29.7002 46.6004 29.8002C46.7004 30.0002 46.8004 30.1002 46.8004 30.3002C46.7004 31.1002 45.6004 32.2002 44.9004 32.8002C43.8004 33.6002 42.0004 33.8002 41.4004 33.9002C41.6004 32.6002 42.3004 31.6002 43.4004 30.6002ZM32.1004 29.5002C31.9004 28.4002 32.4004 27.2002 33.2004 26.4002C33.6004 26.0002 34.1004 25.8002 34.5004 25.8002C34.9004 25.8002 35.2004 26.0002 35.4004 26.3002C35.6004 26.8002 35.2004 27.5002 34.7004 28.0002C34.0004 28.6002 33.1004 29.1002 32.1004 29.5002ZM68.2004 63.5002C67.7004 66.2002 66.1004 68.5002 63.8004 70.0002C61.5004 71.5002 58.8004 72.1002 56.1004 71.5002C53.4004 71.0002 51.1004 69.4002 49.6004 67.1002L44.5004 59.5002C46.1004 56.6002 48.6004 53.9002 51.7004 51.8002C54.8004 49.7002 58.3004 48.4002 61.6004 48.1002L66.7004 55.7002C68.2004 58.0002 68.8004 60.8002 68.2004 63.5002Z" fill="#0A0A2D"/>
<defs>
<filter id="filter0_dd" x="0.53125" y="3.89453" width="94.1367" height="94.1357" filterUnits="userSpaceOnUse" color-interpolation-filters="sRGB">
<feFlood flood-opacity="0" result="BackgroundImageFix"/>
<feColorMatrix in="SourceAlpha" type="matrix" values="0 0 0 0 0 0 0 0 0 0 0 0 0 0 0 0 0 0 127 0" result="hardAlpha"/>
<feOffset dy="4"/>
<feGaussianBlur stdDeviation="3"/>
<feColorMatrix type="matrix" values="0 0 0 0 0 0 0 0 0 0 0 0 0 0 0 0 0 0 0.04 0"/>
<feBlend mode="normal" in2="BackgroundImageFix" result="effect1_dropShadow"/>
<feColorMatrix in="SourceAlpha" type="matrix" values="0 0 0 0 0 0 0 0 0 0 0 0 0 0 0 0 0 0 127 0" result="hardAlpha"/>
<feMorphology radius="2" operator="erode" in="SourceAlpha" result="effect2_dropShadow"/>
<feOffset dy="3"/>
<feGaussianBlur stdDeviation="1"/>
<feColorMatrix type="matrix" values="0 0 0 0 0 0 0 0 0 0 0 0 0 0 0 0 0 0 0.12 0"/>
<feBlend mode="normal" in2="effect1_dropShadow" result="effect2_dropShadow"/>
<feBlend mode="normal" in="SourceGraphic" in2="effect2_dropShadow" result="shape"/>
</filter>
</defs>
</svg>
