<svg width="96" height="99" viewBox="0 0 96 99" fill="none" xmlns="http://www.w3.org/2000/svg">
<g filter="url(#filter0_dd)">
<path d="M7.25787 45.7957C4.27746 17.439 9.71633 10.7225 38.073 7.74213L48.7661 6.61824C77.1228 3.63784 83.8392 9.07671 86.8196 37.4334L87.9435 48.1265C90.9239 76.4831 85.485 83.1996 57.1284 86.18L46.4353 87.3039C18.0786 90.2843 11.3622 84.8454 8.38176 56.4888L7.25787 45.7957Z" fill="white"/>
</g>
<path d="M27.2996 37.3L31.5996 33L27.2996 28.7L28.6996 27.3L32.9996 31.6L37.2996 27.3L38.6996 28.7L34.3996 33L38.6996 37.3L37.2996 38.7L32.9996 34.4L28.6996 38.7L27.2996 37.3ZM68.9996 63C68.9996 66.3 66.2996 69 62.9996 69C59.6996 69 56.9996 66.3 56.9996 63C56.9996 59.7 59.6996 57 62.9996 57C66.2996 57 68.9996 59.7 68.9996 63ZM66.9996 63C66.9996 60.8 65.1996 59 62.9996 59C60.7996 59 58.9996 60.8 58.9996 63C58.9996 65.2 60.7996 67 62.9996 67C65.1996 67 66.9996 65.2 66.9996 63ZM53.7996 49.5C51.7996 50.6 49.5996 51.8 47.5996 53.1C47.7996 53.9 47.8996 54.7 47.8996 55.5C47.6996 59.4 44.6996 63.1 42.1996 64C40.8996 64.5 39.7996 64.2 38.9996 63.4C38.0996 62.4 37.6996 61.3 37.8996 60C38.2996 57.6 40.8996 55 45.0996 52.3C44.4996 51.5 43.6996 50.9 42.5996 50.3C40.4996 49.3 38.4996 50.3 37.0996 51.2C32.4996 54.4 28.0996 62.9 28.7996 70.6L26.7996 70.8C25.9996 62.1 30.9996 53 35.9996 49.6C38.5996 47.8 41.1996 47.4 43.4996 48.5C44.8996 49.2 46.0996 50.1 46.7996 51.2C48.5996 50.1 50.6996 48.9 52.8996 47.7C58.0996 44.9 60.3996 40.4 60.7996 31.8C58.6996 34.7 55.4996 37.4 52.3996 39L51.4996 37.2C55.4996 35.2 59.5996 31.1 60.9996 27.6C61.1996 27.2 61.4996 27 61.8996 27C62.2996 27 62.6996 27.3 62.7996 27.7C63.8996 30.8 67.1996 35.8 69.6996 37.4L68.5996 39.1C66.5996 37.9 64.3996 35 62.6996 32.2C62.2996 41.3 59.5996 46.3 53.7996 49.5ZM45.8996 55.4C45.8996 55 45.8996 54.6 45.7996 54.2C42.5996 56.4 40.0996 58.6 39.7996 60.4C39.6996 61 39.8996 61.6 40.3996 62.1C40.4996 62.2 40.6996 62.5 41.4996 62.2C43.4996 61.4 45.7996 58.3 45.8996 55.4Z" fill="#0A0A2D"/>
<defs>
<filter id="filter0_dd" x="0.533203" y="3.89355" width="94.1348" height="94.1357" filterUnits="userSpaceOnUse" color-interpolation-filters="sRGB">
<feFlood flood-opacity="0" result="BackgroundImageFix"/>
<feColorMatrix in="SourceAlpha" type="matrix" values="0 0 0 0 0 0 0 0 0 0 0 0 0 0 0 0 0 0 127 0" result="hardAlpha"/>
<feOffset dy="4"/>
<feGaussianBlur stdDeviation="3"/>
<feColorMatrix type="matrix" values="0 0 0 0 0 0 0 0 0 0 0 0 0 0 0 0 0 0 0.04 0"/>
<feBlend mode="normal" in2="BackgroundImageFix" result="effect1_dropShadow"/>
<feColorMatrix in="SourceAlpha" type="matrix" values="0 0 0 0 0 0 0 0 0 0 0 0 0 0 0 0 0 0 127 0" result="hardAlpha"/>
<feMorphology radius="2" operator="erode" in="SourceAlpha" result="effect2_dropShadow"/>
<feOffset dy="3"/>
<feGaussianBlur stdDeviation="1"/>
<feColorMatrix type="matrix" values="0 0 0 0 0 0 0 0 0 0 0 0 0 0 0 0 0 0 0.12 0"/>
<feBlend mode="normal" in2="effect1_dropShadow" result="effect2_dropShadow"/>
<feBlend mode="normal" in="SourceGraphic" in2="effect2_dropShadow" result="shape"/>
</filter>
</defs>
</svg>
